<?xml version="1.0" encoding="utf-8"?>
<!-- Generator: Adobe Illustrator 25.3.1, SVG Export Plug-In . SVG Version: 6.00 Build 0)  -->
<svg version="1.1" id="Camada_1" xmlns="http://www.w3.org/2000/svg" xmlns:xlink="http://www.w3.org/1999/xlink" x="0px" y="0px"
	 viewBox="0 0 595.28 841.89" style="enable-background:new 0 0 595.28 841.89;" xml:space="preserve">
<style type="text/css">
	.st0{fill-rule:evenodd;clip-rule:evenodd;fill:#9C1F2E;}
	.st1{fill-rule:evenodd;clip-rule:evenodd;fill:#96989A;}
	.st2{fill-rule:evenodd;clip-rule:evenodd;fill:#666666;}
</style>
<g>
	<g>
		<g>
			<path class="st0" d="M246.15,243.07c-108.03,34.96-187.39-19.33-102.78-46.24c2.07-0.35,4.63-0.05,6.22-0.54
				c-8.5,2.61-13.27,3.92-21.92,11.07c-6.34,5.24-7.79,11.63-6.65,16.97c6.84,29.38,82.8,27.83,126.5,13.06L246.15,243.07
				L246.15,243.07z M257.74,256.09l1.98-8.55c-77.73,34.32-198.14,0.72-151.57-37.75c10.45-8.64,21.37-10.95,31.63-14.1
				c-1.92,0.59-5.34,0.62-7.83,1.04c-22.36,3.79-44.31,17.08-44,33.06C89.04,271.7,193.24,281.64,257.74,256.09L257.74,256.09z
				 M228.93,233.02l1.69-5c-31.26,10.86-90.69,12.55-95.37-11.64c-0.81-3.81,0.22-8.37,4.75-12.11c6.17-5.1,10.89-5.83,16.95-7.69
				c-1.14,0.35-2.69-0.01-4.16,0.24c-13.22,2.24-24.91,9.82-24.73,19.27C126.28,244.2,195.92,245.42,228.93,233.02L228.93,233.02z
				 M209.21,222.92l0.46-2.6c-22.5,5.18-60.38,5.11-65.9-9.93c-0.54-2.52,0.15-5.52,3.13-7.99c4.07-3.37,8.44-4.03,12.44-5.26
				c-0.75,0.23-2.08,0.24-3.05,0.41c-8.72,1.48-17.38,6.43-17.26,12.66C138.65,225.4,181.78,231.09,209.21,222.92L209.21,222.92z
				 M187.37,212.3l0.59-0.95c-9.43,2.29-33.66,2.08-36.05-5.91c-0.29-1.37,0.08-3.01,1.7-4.35c2.22-1.83,4.59-2.2,6.77-2.87
				c-0.41,0.12-1.13,0.13-1.66,0.22c-4.75,0.81-9.46,3.5-9.4,6.89C149.49,213.37,176.32,215.65,187.37,212.3L187.37,212.3z
				 M175.69,205.82l0.33-0.53c-5.11,0.45-9.58,0.49-13.94-0.22c-1.59-0.26-4.42-1.46-4.71-2.79c-0.15-0.71,0.04-1.55,0.88-2.24
				c1.14-0.95,2.37-1.13,3.49-1.48c-0.21,0.06-0.58,0.07-0.86,0.11c-2.45,0.41-4.88,1.8-4.84,3.55c0.04,2.05,2.39,2.87,4.59,3.45
				C163.52,206.69,171.05,206.59,175.69,205.82z"/>
			<path class="st1" d="M90.54,159.93c108.03-34.96,187.39,19.33,102.78,46.24c-2.07,0.35-4.63,0.05-6.22,0.54
				c8.5-2.61,13.27-3.92,21.92-11.07c6.34-5.24,7.79-11.63,6.65-16.97c-6.84-29.38-82.8-27.83-126.5-13.06L90.54,159.93
				L90.54,159.93z M78.95,146.91l-1.98,8.55c77.73-34.32,198.14-0.72,151.57,37.75c-10.45,8.64-21.37,10.95-31.63,14.1
				c1.92-0.59,5.34-0.62,7.83-1.04c22.37-3.79,44.31-17.08,44-33.06C247.65,131.29,143.45,121.36,78.95,146.91L78.95,146.91z
				 M107.76,169.97l-1.69,5c31.26-10.86,90.69-12.55,95.37,11.64c0.81,3.81-0.22,8.37-4.74,12.11c-6.17,5.1-10.89,5.83-16.95,7.69
				c1.14-0.35,2.69,0.01,4.16-0.24c13.22-2.24,24.91-9.82,24.73-19.27C210.41,158.79,140.77,157.57,107.76,169.97L107.76,169.97z
				 M127.47,180.08l-0.46,2.6c22.5-5.18,60.38-5.11,65.9,9.93c0.54,2.52-0.15,5.52-3.13,7.99c-4.07,3.37-8.44,4.03-12.44,5.26
				c0.75-0.23,2.08-0.24,3.05-0.41c8.72-1.48,17.38-6.43,17.26-12.66C198.04,177.59,154.9,171.9,127.47,180.08L127.47,180.08z
				 M149.31,190.69l-0.59,0.95c9.43-2.29,33.66-2.08,36.05,5.91c0.29,1.37-0.08,3.01-1.7,4.35c-2.22,1.83-4.59,2.2-6.77,2.87
				c0.41-0.12,1.13-0.13,1.66-0.22c4.75-0.81,9.46-3.5,9.4-6.89C187.2,189.62,160.37,187.35,149.31,190.69L149.31,190.69z
				 M161,197.18l-0.33,0.53c5.11-0.45,9.58-0.49,13.94,0.22c1.59,0.26,4.42,1.46,4.71,2.79c0.15,0.71-0.04,1.55-0.88,2.24
				c-1.14,0.95-2.37,1.13-3.49,1.48c0.21-0.06,0.58-0.07,0.86-0.11c2.45-0.41,4.88-1.8,4.84-3.55c-0.04-2.05-2.39-2.87-4.59-3.45
				C173.16,196.3,165.64,196.41,161,197.18z"/>
		</g>
		<path class="st0" d="M292.7,146.42l7.54,23.65l7.94-23.65h9.4v30.31h-6.13v-22.74l-7.92,22.74h-6.63l-7.48-22.74v22.74h-6.13
			v-30.31H292.7L292.7,146.42z M338.15,172v-17.4h6.09v22.13h-11.96c-1.74,0-3.08-0.13-4.01-0.38c-0.93-0.25-1.76-0.72-2.5-1.39
			c-1.55-1.41-2.33-3.66-2.33-6.75V154.6h6.09v14.23c0,0.99,0.26,1.76,0.77,2.33c0.52,0.56,1.23,0.84,2.14,0.84H338.15L338.15,172z
			 M369.41,154.6v4.73h-10.78c-1.23,0-2.01,0.06-2.35,0.18c-0.7,0.23-1.04,0.83-1.04,1.79c0,0.79,0.33,1.39,1,1.81
			c0.36,0.23,1.33,0.36,2.95,0.36h3.6c2.29,0,4.09,0.49,5.42,1.48c1.48,1.09,2.21,2.7,2.21,4.81c0,1.59-0.44,3.06-1.33,4.41
			c-0.68,1.03-1.5,1.72-2.46,2.06c-0.96,0.34-2.54,0.51-4.76,0.51h-12.59V172h10.83c1.34,0,2.25-0.02,2.73-0.07
			c1.08-0.11,1.61-0.72,1.61-1.81c0-0.92-0.36-1.54-1.06-1.88c-0.38-0.19-1.26-0.29-2.64-0.29h-3.68c-1.44,0-2.54-0.09-3.32-0.27
			c-0.77-0.18-1.49-0.51-2.16-0.98c-0.81-0.6-1.45-1.39-1.92-2.4c-0.48-1.01-0.71-2.1-0.71-3.27c0-2.22,0.8-3.98,2.42-5.29
			c0.96-0.77,2.64-1.16,5.03-1.16H369.41L369.41,154.6z M393.21,163.27V168h-12.82c0.11,1.45,0.58,2.48,1.41,3.09
			c0.82,0.61,2.14,0.91,3.98,0.91h7.43v4.73h-8.09c-1.76,0-3.19-0.16-4.29-0.47c-1.1-0.31-2.14-0.84-3.13-1.6
			c-2.67-2.07-4.01-5.16-4.01-9.28c0-2.69,0.71-5.03,2.13-7.01c0.98-1.36,2.14-2.33,3.51-2.91c1.36-0.58,3.14-0.86,5.36-0.86h8.54
			v4.73h-8.09c-1.66,0-2.82,0.28-3.5,0.84c-0.67,0.57-1.08,1.61-1.23,3.11H393.21L393.21,163.27z M412.69,172v-17.4h6.09v22.13
			h-11.96c-1.74,0-3.08-0.13-4.01-0.38c-0.93-0.25-1.76-0.72-2.5-1.39c-1.55-1.41-2.33-3.66-2.33-6.75V154.6h6.09v14.23
			c0,0.99,0.26,1.76,0.77,2.33c0.52,0.56,1.23,0.84,2.14,0.84H412.69L412.69,172z M450.9,154.6v-8.18h6.09v30.31h-10.48
			c-2.13,0-3.72-0.17-4.79-0.49c-2.6-0.81-4.54-2.42-5.8-4.82c-0.86-1.62-1.29-3.59-1.29-5.9c0-3.8,1.27-6.75,3.81-8.85
			c1.65-1.38,3.9-2.07,6.73-2.07H450.9L450.9,154.6z M450.9,172v-12.68h-4.39c-1.94,0-3.41,0.64-4.41,1.93
			c-0.86,1.11-1.29,2.53-1.29,4.26c0,2.5,0.72,4.29,2.15,5.37c0.98,0.74,2.17,1.11,3.54,1.11H450.9L450.9,172z M478.29,163.27
			c0-1.55-0.31-2.61-0.94-3.14c-0.63-0.54-1.86-0.81-3.69-0.81h-10.28v-4.73h10.28c1.83,0,3.1,0.03,3.8,0.1
			c0.7,0.07,1.41,0.22,2.11,0.44c3.36,1.27,4.96,4.31,4.8,9.12v12.47h-12.82c-2.29,0-3.87-0.07-4.75-0.2
			c-0.88-0.14-1.65-0.42-2.31-0.87c-1.8-1.21-2.7-3.04-2.7-5.48c0-1.49,0.36-2.82,1.08-3.98c0.71-1.16,1.65-1.95,2.82-2.36
			c1.04-0.37,2.76-0.55,5.16-0.55H478.29L478.29,163.27z M478.29,168h-7.02h-1.01c-0.69,0-1.23,0.18-1.64,0.55
			c-0.4,0.37-0.61,0.86-0.61,1.48c0,0.73,0.24,1.23,0.73,1.53c0.49,0.3,1.33,0.44,2.51,0.44h7.02V168L478.29,168z M276.91,212.4
			v5.36h-10.56c-2.01,0-3.54-0.11-4.6-0.31c-3.7-0.73-6.35-2.8-7.91-6.24c-1.04-2.29-1.55-5.13-1.55-8.53
			c0-4.07,0.79-7.38,2.37-9.94c1.14-1.84,2.67-3.17,4.57-4.02c1.92-0.84,4.39-1.26,7.44-1.26h10.25v5.36h-9.52
			c-2.87,0-4.98,0.77-6.32,2.32c-1.11,1.28-1.66,3.6-1.66,6.95c0,4.48,0.86,7.44,2.58,8.84c1.21,0.98,3.09,1.47,5.63,1.47H276.91
			L276.91,212.4z M291.54,195.32c4.08,0,7.1,1.18,9.04,3.54c1.79,2.16,2.68,4.86,2.68,8.12c0,3.45-1.12,6.21-3.37,8.26
			c-2.06,1.89-4.88,2.84-8.45,2.84c-3.7,0-6.6-1.06-8.69-3.17c-1.92-1.93-2.89-4.72-2.89-8.35c0-3.1,0.92-5.68,2.77-7.74
			C284.7,196.53,287.66,195.37,291.54,195.32L291.54,195.32z M291.58,200c-3.63,0-5.44,2.26-5.44,6.78c0,1.84,0.3,3.24,0.88,4.2
			c0.98,1.62,2.52,2.43,4.6,2.43c3.58,0,5.38-2.24,5.38-6.73C296.99,202.26,295.19,200.05,291.58,200L291.58,200z M307.81,195.64
			h22.37c2.04,0,3.59,0.15,4.65,0.45c1.06,0.3,1.95,0.83,2.65,1.6c1.33,1.45,2,3.45,2,5.99v14.09h-6.09v-13.14
			c0-1.07-0.05-1.81-0.14-2.22c-0.1-0.42-0.3-0.79-0.63-1.14c-0.62-0.61-1.58-0.91-2.85-0.91h-3.23v17.4h-6.09v-17.4h-6.54v17.4
			h-6.09V195.64L307.81,195.64z M345.1,195.64h10.64c2.07,0,3.63,0.13,4.7,0.39c1.06,0.26,2.07,0.76,3.01,1.5
			c2.64,2.07,3.95,5.25,3.95,9.52c0,3.24-0.97,5.87-2.91,7.88c-0.96,0.99-2.07,1.71-3.32,2.17c-1.26,0.45-2.8,0.67-4.62,0.67h-5.37
			v8.31h-6.09V195.64L345.1,195.64z M351.19,200.36v12.68h3.73c1.96,0,3.4-0.42,4.32-1.26c1.26-1.14,1.9-2.87,1.9-5.19
			c0-2-0.5-3.54-1.5-4.6c-1-1.08-2.43-1.61-4.3-1.61H351.19L351.19,200.36z M386.35,213.04v-17.4h6.09v22.13h-11.96
			c-1.74,0-3.08-0.13-4.01-0.38c-0.93-0.25-1.76-0.72-2.5-1.39c-1.55-1.41-2.33-3.66-2.33-6.75v-13.61h6.09v14.23
			c0,0.99,0.26,1.76,0.77,2.33c0.52,0.56,1.23,0.84,2.14,0.84H386.35L386.35,213.04z M400.02,195.64v-8.18h6.09v8.18h5.63v4.73
			h-5.63v8.04c0,1.88,0.17,3.06,0.51,3.54c0.52,0.73,1.43,1.09,2.73,1.09h2.39v4.73h-4.41c-2.64,0-4.51-0.64-5.63-1.91
			c-1.11-1.27-1.67-3.41-1.67-6.39v-9.1h-3.86v-4.73H400.02L400.02,195.64z M431.14,204.32c0-1.55-0.31-2.61-0.94-3.14
			c-0.63-0.54-1.86-0.81-3.69-0.81h-10.28v-4.73h10.28c1.83,0,3.1,0.03,3.8,0.1c0.7,0.07,1.41,0.22,2.11,0.44
			c3.36,1.27,4.96,4.31,4.8,9.12v12.47h-12.82c-2.29,0-3.87-0.07-4.75-0.2c-0.88-0.14-1.65-0.42-2.31-0.87
			c-1.8-1.21-2.7-3.04-2.7-5.48c0-1.49,0.36-2.82,1.08-3.98c0.71-1.16,1.65-1.95,2.82-2.36c1.04-0.37,2.76-0.55,5.16-0.55H431.14
			L431.14,204.32z M431.14,209.04h-7.02h-1.01c-0.69,0-1.23,0.18-1.64,0.55c-0.4,0.37-0.61,0.86-0.61,1.48
			c0,0.73,0.24,1.23,0.73,1.53c0.49,0.3,1.33,0.44,2.51,0.44h7.02V209.04L431.14,209.04z M454.82,217.77v2.04h0.45
			c1.3,0,2.23,0.18,2.78,0.55c0.85,0.56,1.27,1.48,1.27,2.76c0,1.47-0.57,2.42-1.71,2.85c-0.57,0.22-1.45,0.33-2.63,0.33h-3.52
			v-2.23h3.12c0.5,0,0.85-0.1,1.06-0.29c0.21-0.19,0.32-0.5,0.32-0.92c0-0.51-0.1-0.83-0.3-1c-0.2-0.16-0.61-0.24-1.23-0.24h-1.92
			v-3.86c-1.89-0.06-3.39-0.26-4.49-0.59c-1.09-0.33-2.08-0.89-2.98-1.7c-2.42-2.17-3.62-5.12-3.62-8.83c0-3.94,1.14-6.88,3.42-8.84
			c0.9-0.78,1.99-1.34,3.26-1.67c1.27-0.33,2.93-0.5,4.98-0.5h8.28v4.73h-7.27c-2.44,0-4.14,0.55-5.1,1.64
			c-0.9,1.04-1.36,2.6-1.36,4.7c0,2.39,0.74,4.11,2.22,5.18c0.61,0.44,1.26,0.74,1.97,0.91c0.71,0.16,1.7,0.24,2.97,0.24h6.57v4.73
			H454.82L454.82,217.77z M481.35,204.32c0-1.55-0.31-2.61-0.94-3.14c-0.63-0.54-1.86-0.81-3.69-0.81h-10.28v-4.73h10.28
			c1.83,0,3.1,0.03,3.8,0.1c0.7,0.07,1.41,0.22,2.11,0.44c3.36,1.27,4.96,4.31,4.8,9.12v12.47h-12.82c-2.29,0-3.87-0.07-4.75-0.2
			c-0.88-0.14-1.65-0.42-2.31-0.87c-1.8-1.21-2.7-3.04-2.7-5.48c0-1.49,0.36-2.82,1.08-3.98c0.71-1.16,1.65-1.95,2.82-2.36
			c1.04-0.37,2.76-0.55,5.16-0.55H481.35L481.35,204.32z M481.35,209.04h-7.02h-1.01c-0.69,0-1.23,0.18-1.64,0.55
			c-0.4,0.37-0.61,0.86-0.61,1.48c0,0.73,0.24,1.23,0.73,1.53c0.49,0.3,1.33,0.44,2.51,0.44h7.02V209.04L481.35,209.04z
			 M484.19,187.87c-0.37,3.27-1.78,4.91-4.22,4.91c-0.95,0-2.15-0.29-3.61-0.87c-1.19-0.48-1.99-0.72-2.42-0.72
			c-0.93,0-1.49,0.5-1.68,1.5h-2.76c0.46-3.27,1.89-4.91,4.29-4.91c0.79,0,1.98,0.31,3.57,0.94c1.1,0.43,1.91,0.65,2.45,0.65
			c0.89,0,1.43-0.5,1.64-1.5H484.19L484.19,187.87z M503.3,195.32c4.08,0,7.1,1.18,9.04,3.54c1.79,2.16,2.68,4.86,2.68,8.12
			c0,3.45-1.12,6.21-3.37,8.26c-2.06,1.89-4.88,2.84-8.45,2.84c-3.7,0-6.6-1.06-8.69-3.17c-1.92-1.93-2.88-4.72-2.88-8.35
			c0-3.1,0.92-5.68,2.77-7.74C496.45,196.53,499.42,195.37,503.3,195.32L503.3,195.32z M503.34,200c-3.63,0-5.44,2.26-5.44,6.78
			c0,1.84,0.3,3.24,0.88,4.2c0.98,1.62,2.52,2.43,4.6,2.43c3.58,0,5.38-2.24,5.38-6.73C508.75,202.26,506.95,200.05,503.34,200
			L503.34,200z M310.03,236.68v-8.18h6.09v30.3h-10.48c-2.13,0-3.72-0.17-4.79-0.49c-2.6-0.81-4.54-2.42-5.8-4.82
			c-0.86-1.62-1.29-3.59-1.29-5.9c0-3.8,1.27-6.75,3.81-8.85c1.65-1.38,3.9-2.07,6.73-2.07H310.03L310.03,236.68z M310.03,254.08
			v-12.68h-4.39c-1.94,0-3.41,0.64-4.41,1.93c-0.86,1.11-1.29,2.53-1.29,4.26c0,2.5,0.72,4.29,2.15,5.37
			c0.98,0.74,2.17,1.11,3.54,1.11H310.03L310.03,254.08z M337.42,245.36c0-1.55-0.31-2.61-0.94-3.14c-0.63-0.54-1.86-0.81-3.69-0.81
			h-10.28v-4.73h10.28c1.83,0,3.1,0.03,3.8,0.1c0.7,0.07,1.41,0.22,2.11,0.44c3.36,1.27,4.96,4.31,4.8,9.12v12.47h-12.82
			c-2.29,0-3.87-0.07-4.75-0.2c-0.88-0.14-1.65-0.42-2.31-0.87c-1.8-1.21-2.7-3.04-2.7-5.48c0-1.49,0.36-2.82,1.08-3.98
			c0.71-1.16,1.65-1.95,2.82-2.36c1.04-0.37,2.76-0.55,5.16-0.55H337.42L337.42,245.36z M337.42,250.08h-7.02h-1.01
			c-0.69,0-1.23,0.18-1.64,0.55c-0.4,0.37-0.61,0.86-0.61,1.48c0,0.73,0.24,1.23,0.73,1.53c0.49,0.3,1.33,0.44,2.51,0.44h7.02
			V250.08L337.42,250.08z M366.78,228.5v18.17c0,1.45,0.12,2.57,0.36,3.38c0.23,0.8,0.64,1.48,1.21,2.04
			c1.29,1.23,3.06,1.85,5.32,1.85c1.45,0,2.7-0.24,3.78-0.73c1.08-0.49,1.82-1.15,2.23-1.99c0.43-0.86,0.64-2.38,0.64-4.56V228.5
			h6.45v17.86c0,2.35-0.24,4.29-0.73,5.83c-0.48,1.54-1.26,2.77-2.3,3.7c-2.39,2.1-5.78,3.15-10.18,3.15
			c-4.67,0-8.09-1.03-10.25-3.08c-1.13-1.08-1.9-2.27-2.33-3.59c-0.43-1.31-0.64-3.16-0.64-5.54V228.5H366.78L366.78,228.5z
			 M416.76,240.91v5.36h-18.04v12.54h-6.45v-15.83c0.05-4.57,0.48-7.56,1.31-9c1.02-1.98,2.51-3.38,4.48-4.22
			c1.96-0.84,4.71-1.26,8.25-1.26h10.46v5.36h-9.64c-3,0.05-4.93,0.29-5.79,0.73c-1.7,0.7-2.57,2.26-2.61,4.67v1.64H416.76
			L416.76,240.91z M427.95,247.27v11.54h-6.45v-30.3h14.8c4.25,0,7.22,0.54,8.91,1.62c1.14,0.73,2.02,1.68,2.65,2.87
			c0.63,1.2,0.95,2.51,0.95,3.95c0,2.89-0.73,5.1-2.2,6.66c-0.91,0.95-2.11,1.67-3.61,2.17c1.19,0.4,2.08,0.83,2.69,1.31
			c0.61,0.48,1.15,1.17,1.64,2.09c0.37,0.71,0.63,1.4,0.79,2.07c0.15,0.67,0.28,1.67,0.39,2.99c0.17,2.17,0.42,3.7,0.73,4.57h-7.24
			c-0.22-0.71-0.44-2.15-0.66-4.32c-0.18-1.78-0.5-3.13-0.97-4.08c-0.46-0.94-1.17-1.67-2.12-2.21c-1.17-0.64-2.87-0.95-5.1-0.93
			H427.95L427.95,247.27z M427.95,241.91H437c1.51,0,2.59-0.23,3.23-0.67c0.96-0.68,1.45-1.86,1.45-3.53c0-1.86-0.73-3.05-2.18-3.57
			c-0.5-0.17-1.33-0.26-2.49-0.26h-9.05V241.91L427.95,241.91z M451.57,258.81v-5.36h6.17c1.95,0,3.38-0.08,4.29-0.22
			c0.91-0.15,1.62-0.42,2.12-0.83c0.67-0.51,1.12-1.26,1.36-2.23c0.24-0.97,0.36-2.51,0.36-4.63V228.5h6.45v17.04
			c0,2.13-0.08,3.73-0.24,4.83c-0.15,1.09-0.45,2.11-0.9,3.07c-1.15,2.57-3.26,4.23-6.31,4.96c-1.45,0.27-3.61,0.4-6.48,0.4H451.57z
			"/>
		<path class="st2" d="M79.71,283.54v8.28c0,0.77,0.05,1.39,0.14,1.84c0.1,0.45,0.26,0.82,0.49,1.1c0.61,0.76,1.63,1.14,3.05,1.14
			c1.58,0,2.67-0.45,3.29-1.33c0.18-0.26,0.3-0.59,0.36-1c0.07-0.41,0.1-1.05,0.1-1.93v-8.11h2.21v8.11c0,1.21-0.07,2.1-0.21,2.68
			c-0.27,1.16-1.04,2.04-2.3,2.65c-0.96,0.47-2.2,0.7-3.73,0.7c-1.37,0-2.46-0.22-3.27-0.66c-1.06-0.58-1.77-1.46-2.11-2.63
			c-0.17-0.58-0.25-1.43-0.25-2.57v-8.28H79.71L79.71,283.54z M94.37,286.37v11.11H92.2v-13.93h2.66l7.08,11.15v-11.15h2.17v13.93
			h-2.59L94.37,286.37L94.37,286.37z M107.11,297.47v-13.93h2.21v13.93H107.11L107.11,297.47z M125.45,283.54l-5.94,13.93h-2.64
			l-5.97-13.93h2.57l4.76,11.85l4.83-11.85H125.45L125.45,283.54z M137.01,283.54v1.78h-4.06c-0.75,0-1.33,0.05-1.74,0.15
			c-0.41,0.1-0.78,0.29-1.1,0.54c-0.45,0.36-0.79,0.82-1.01,1.37c-0.22,0.55-0.36,1.28-0.41,2.19h8.33v1.78h-8.33
			c-0.02,1,0.2,1.9,0.67,2.72c0.34,0.6,0.78,1.02,1.31,1.26c0.52,0.24,1.25,0.37,2.18,0.37h4.17v1.78h-4.58
			c-1.17,0-2.12-0.13-2.85-0.4c-1.3-0.48-2.26-1.51-2.86-3.12c-0.33-0.86-0.49-1.92-0.49-3.18c0-1.68,0.26-3.04,0.79-4.08
			c0.59-1.15,1.34-1.96,2.26-2.44c0.91-0.48,2.18-0.71,3.8-0.71H137.01L137.01,283.54z M141.7,291.56v5.91h-2.21v-13.93h6.34
			c1.83,0,3.11,0.25,3.84,0.75c0.48,0.33,0.86,0.77,1.14,1.32c0.27,0.55,0.41,1.14,0.41,1.79c0,1.2-0.39,2.14-1.17,2.81
			c-0.43,0.36-1.01,0.64-1.73,0.85c0.94,0.42,1.58,0.91,1.92,1.48c0.34,0.57,0.55,1.51,0.64,2.82c0.05,0.85,0.1,1.36,0.13,1.53
			c0.03,0.17,0.11,0.37,0.24,0.59h-2.27c-0.08-0.15-0.13-0.3-0.15-0.45c-0.02-0.15-0.07-0.67-0.15-1.57
			c-0.14-1.48-0.54-2.5-1.22-3.06c-0.68-0.56-1.85-0.84-3.51-0.84H141.7L141.7,291.56z M141.7,289.79h3.98
			c1.18,0,1.96-0.14,2.35-0.42c0.55-0.41,0.82-1.01,0.82-1.82c0-0.93-0.3-1.57-0.89-1.93c-0.33-0.21-1.09-0.31-2.27-0.31h-3.98
			V289.79L141.7,289.79z M153.3,297.47v-1.78h6.02c0.93,0,1.59-0.11,2-0.35c0.62-0.36,0.92-0.96,0.92-1.81c0-1.08-0.4-1.75-1.2-2.01
			c-0.35-0.12-1.07-0.17-2.14-0.17h-1.16c-1.61,0-2.76-0.22-3.45-0.66c-0.99-0.63-1.49-1.62-1.49-2.97c0-0.89,0.23-1.68,0.68-2.37
			c0.44-0.67,1.02-1.14,1.72-1.41c0.71-0.27,1.71-0.4,3-0.4h5.73v1.78h-5.73c-0.61,0-1.07,0.03-1.4,0.09
			c-0.32,0.06-0.61,0.16-0.85,0.31c-0.53,0.34-0.8,0.91-0.8,1.7c0,0.69,0.23,1.19,0.7,1.49c0.47,0.3,1.25,0.45,2.34,0.45h0.84
			c1.19,0,2.08,0.06,2.67,0.16c0.59,0.11,1.07,0.31,1.45,0.59c0.46,0.35,0.81,0.82,1.07,1.41c0.25,0.59,0.38,1.24,0.38,1.96
			c0,1.65-0.64,2.8-1.93,3.47c-0.4,0.2-0.86,0.34-1.36,0.42c-0.51,0.07-1.26,0.11-2.27,0.11H153.3L153.3,297.47z M166.85,297.47
			v-13.93h2.21v13.93H166.85L166.85,297.47z M172.08,283.54h5.34c1.47,0,2.55,0.1,3.24,0.32c1.28,0.4,2.27,1.3,2.98,2.71
			c0.5,0.99,0.75,2.26,0.75,3.82c0,3.11-0.84,5.2-2.53,6.27c-0.52,0.32-1.06,0.54-1.63,0.66c-0.57,0.11-1.44,0.17-2.61,0.17h-5.54
			V283.54L172.08,283.54z M174.29,285.32v10.38h3.55c1.57,0,2.68-0.46,3.31-1.38c0.58-0.84,0.87-2.05,0.87-3.65
			c0-1.8-0.33-3.17-1-4.1c-0.32-0.45-0.73-0.77-1.25-0.96c-0.51-0.2-1.21-0.29-2.08-0.29H174.29L174.29,285.32z M184.53,297.47
			l5.77-13.93h2.93l5.54,13.93h-2.36l-1.42-3.64h-6.6l-1.48,3.64H184.53L184.53,297.47z M191.73,285.21l-2.67,6.85h5.21
			L191.73,285.21L191.73,285.21z M200.35,283.54h5.34c1.47,0,2.55,0.1,3.24,0.32c1.28,0.4,2.27,1.3,2.98,2.71
			c0.5,0.99,0.75,2.26,0.75,3.82c0,3.11-0.84,5.2-2.53,6.27c-0.52,0.32-1.06,0.54-1.63,0.66c-0.57,0.11-1.44,0.17-2.61,0.17h-5.54
			V283.54L200.35,283.54z M202.57,285.32v10.38h3.55c1.57,0,2.68-0.46,3.31-1.38c0.58-0.84,0.87-2.05,0.87-3.65
			c0-1.8-0.33-3.17-1-4.1c-0.32-0.45-0.73-0.77-1.25-0.96c-0.51-0.2-1.21-0.29-2.08-0.29H202.57L202.57,285.32z M224.84,283.54v1.78
			h-4.06c-0.75,0-1.33,0.05-1.74,0.15c-0.41,0.1-0.78,0.29-1.1,0.54c-0.45,0.36-0.79,0.82-1.01,1.37c-0.22,0.55-0.36,1.28-0.41,2.19
			h8.33v1.78h-8.33c-0.02,1,0.2,1.9,0.67,2.72c0.34,0.6,0.78,1.02,1.31,1.26c0.52,0.24,1.25,0.37,2.18,0.37h4.17v1.78h-4.58
			c-1.17,0-2.12-0.13-2.85-0.4c-1.3-0.48-2.26-1.51-2.86-3.12c-0.33-0.86-0.49-1.92-0.49-3.18c0-1.68,0.26-3.04,0.79-4.08
			c0.59-1.15,1.34-1.96,2.26-2.44c0.91-0.48,2.18-0.71,3.8-0.71H224.84L224.84,283.54z M242.74,289.58v1.78h-8.17v6.12h-2.21v-8.4
			c0-0.81,0.04-1.44,0.11-1.87c0.08-0.44,0.22-0.85,0.42-1.25c0.46-0.89,1.12-1.51,1.98-1.87c0.86-0.36,2.11-0.54,3.75-0.54h4.12
			v1.78h-4.31c-1.06,0.01-1.81,0.11-2.26,0.33c-0.56,0.25-0.96,0.63-1.22,1.12c-0.25,0.5-0.38,1.17-0.38,2.01v0.8H242.74
			L242.74,289.58z M255.02,283.54v1.78h-4.06c-0.75,0-1.33,0.05-1.74,0.15c-0.41,0.1-0.78,0.29-1.1,0.54
			c-0.45,0.36-0.79,0.82-1.01,1.37s-0.36,1.28-0.41,2.19h8.33v1.78h-8.33c-0.02,1,0.2,1.9,0.67,2.72c0.34,0.6,0.78,1.02,1.31,1.26
			c0.52,0.24,1.25,0.37,2.18,0.37h4.17v1.78h-4.58c-1.17,0-2.12-0.13-2.85-0.4c-1.3-0.48-2.26-1.51-2.86-3.12
			c-0.33-0.86-0.49-1.92-0.49-3.18c0-1.68,0.26-3.04,0.79-4.08c0.59-1.15,1.34-1.96,2.26-2.44c0.91-0.48,2.18-0.71,3.8-0.71H255.02
			L255.02,283.54z M257.5,283.54h5.34c1.47,0,2.55,0.1,3.24,0.32c1.28,0.4,2.27,1.3,2.98,2.71c0.5,0.99,0.75,2.26,0.75,3.82
			c0,3.11-0.84,5.2-2.53,6.27c-0.52,0.32-1.06,0.54-1.63,0.66c-0.57,0.11-1.44,0.17-2.61,0.17h-5.54V283.54L257.5,283.54z
			 M259.71,285.32v10.38h3.55c1.57,0,2.68-0.46,3.31-1.38c0.58-0.84,0.87-2.05,0.87-3.65c0-1.8-0.33-3.17-1-4.1
			c-0.32-0.45-0.73-0.77-1.25-0.96c-0.51-0.2-1.21-0.29-2.08-0.29H259.71L259.71,285.32z M281.99,283.54v1.78h-4.06
			c-0.75,0-1.33,0.05-1.74,0.15c-0.41,0.1-0.78,0.29-1.1,0.54c-0.45,0.36-0.79,0.82-1.01,1.37c-0.22,0.55-0.36,1.28-0.41,2.19h8.33
			v1.78h-8.33c-0.02,1,0.2,1.9,0.67,2.72c0.34,0.6,0.78,1.02,1.31,1.26c0.52,0.24,1.25,0.37,2.18,0.37h4.17v1.78h-4.58
			c-1.17,0-2.12-0.13-2.85-0.4c-1.3-0.48-2.26-1.51-2.86-3.12c-0.33-0.86-0.49-1.92-0.49-3.18c0-1.68,0.26-3.04,0.79-4.08
			c0.59-1.15,1.34-1.96,2.26-2.44c0.91-0.48,2.18-0.71,3.8-0.71H281.99L281.99,283.54z M286.68,291.56v5.91h-2.21v-13.93h6.34
			c1.83,0,3.11,0.25,3.84,0.75c0.48,0.33,0.86,0.77,1.14,1.32c0.27,0.55,0.41,1.14,0.41,1.79c0,1.2-0.39,2.14-1.17,2.81
			c-0.43,0.36-1.01,0.64-1.73,0.85c0.94,0.42,1.58,0.91,1.92,1.48c0.34,0.57,0.55,1.51,0.64,2.82c0.05,0.85,0.1,1.36,0.13,1.53
			c0.03,0.17,0.11,0.37,0.24,0.59h-2.27c-0.08-0.15-0.13-0.3-0.15-0.45c-0.02-0.15-0.07-0.67-0.15-1.57
			c-0.14-1.48-0.54-2.5-1.22-3.06c-0.68-0.56-1.85-0.84-3.51-0.84H286.68L286.68,291.56z M286.68,289.79h3.98
			c1.18,0,1.96-0.14,2.35-0.42c0.55-0.41,0.82-1.01,0.82-1.82c0-0.93-0.3-1.57-0.89-1.93c-0.33-0.21-1.09-0.31-2.27-0.31h-3.98
			V289.79L286.68,289.79z M297.11,297.47l5.77-13.93h2.93l5.54,13.93h-2.36l-1.42-3.64h-6.6l-1.48,3.64H297.11L297.11,297.47z
			 M304.3,285.21l-2.67,6.85h5.21L304.3,285.21L304.3,285.21z M312.74,283.54h2.21v8.11c0,0.87,0.05,1.54,0.15,2.01
			c0.1,0.46,0.27,0.83,0.5,1.1c0.65,0.64,1.66,0.96,3.03,0.95h3v1.78h-3.44c-1.08,0-1.94-0.1-2.59-0.31
			c-0.64-0.2-1.2-0.56-1.69-1.06c-0.44-0.45-0.74-0.99-0.92-1.62c-0.18-0.63-0.26-1.49-0.26-2.58V283.54L312.74,283.54z
			 M328.47,283.54h5.34c1.47,0,2.55,0.1,3.24,0.32c1.28,0.4,2.27,1.3,2.98,2.71c0.5,0.99,0.75,2.26,0.75,3.82
			c0,3.11-0.84,5.2-2.53,6.27c-0.52,0.32-1.06,0.54-1.63,0.66c-0.57,0.11-1.44,0.17-2.61,0.17h-5.54V283.54L328.47,283.54z
			 M330.69,285.32v10.38h3.55c1.57,0,2.68-0.46,3.31-1.38c0.58-0.84,0.87-2.05,0.87-3.65c0-1.8-0.33-3.17-1-4.1
			c-0.32-0.45-0.73-0.77-1.25-0.96c-0.51-0.2-1.21-0.29-2.08-0.29H330.69L330.69,285.32z M349.04,283.35c2.63,0,4.46,0.79,5.52,2.38
			c0.76,1.16,1.14,2.77,1.14,4.82c0,2.52-0.64,4.36-1.91,5.5c-1.21,1.09-2.87,1.63-4.95,1.63c-2.38,0-4.11-0.68-5.2-2.03
			c-0.44-0.54-0.78-1.27-1.04-2.2c-0.26-0.93-0.39-1.9-0.39-2.91c0-1.03,0.14-2,0.41-2.91c0.28-0.92,0.65-1.65,1.12-2.2
			c0.59-0.7,1.32-1.21,2.18-1.55C346.79,283.54,347.83,283.37,349.04,283.35L349.04,283.35z M349.03,285.13
			c-1.93,0-3.22,0.67-3.87,2.01c-0.39,0.81-0.59,1.93-0.59,3.37c0,1.73,0.29,3.02,0.87,3.89c0.68,1.01,1.87,1.52,3.57,1.52
			c1.93,0,3.2-0.68,3.83-2.03c0.34-0.74,0.51-1.83,0.51-3.26c0-1.75-0.25-3.03-0.76-3.84C351.9,285.69,350.71,285.14,349.03,285.13
			L349.03,285.13z M365.35,291.56v5.91h-2.21v-13.93h6.34c1.83,0,3.11,0.25,3.84,0.75c0.48,0.33,0.86,0.77,1.14,1.32
			c0.27,0.55,0.41,1.14,0.41,1.79c0,1.2-0.39,2.14-1.17,2.81c-0.43,0.36-1.01,0.64-1.73,0.85c0.94,0.42,1.58,0.91,1.92,1.48
			c0.34,0.57,0.55,1.51,0.64,2.82c0.05,0.85,0.1,1.36,0.13,1.53c0.03,0.17,0.11,0.37,0.24,0.59h-2.27c-0.08-0.15-0.13-0.3-0.15-0.45
			c-0.02-0.15-0.07-0.67-0.15-1.57c-0.14-1.48-0.54-2.5-1.22-3.06c-0.68-0.56-1.85-0.84-3.51-0.84H365.35L365.35,291.56z
			 M365.35,289.79h3.98c1.18,0,1.96-0.14,2.35-0.42c0.55-0.41,0.82-1.01,0.82-1.82c0-0.93-0.3-1.57-0.89-1.93
			c-0.33-0.21-1.09-0.31-2.27-0.31h-3.98V289.79L365.35,289.79z M377.2,297.47v-13.93h2.21v13.93H377.2L377.2,297.47z
			 M388.47,283.35c2.63,0,4.46,0.79,5.52,2.38c0.76,1.16,1.14,2.77,1.14,4.82c0,2.52-0.64,4.36-1.91,5.5
			c-1.22,1.09-2.87,1.63-4.95,1.63c-2.38,0-4.11-0.68-5.2-2.03c-0.44-0.54-0.78-1.27-1.04-2.2c-0.26-0.93-0.39-1.9-0.39-2.91
			c0-1.03,0.14-2,0.41-2.91c0.28-0.92,0.65-1.65,1.12-2.2c0.59-0.7,1.32-1.21,2.18-1.55C386.21,283.54,387.25,283.37,388.47,283.35
			L388.47,283.35z M388.45,285.13c-1.93,0-3.22,0.67-3.87,2.01c-0.39,0.81-0.59,1.93-0.59,3.37c0,1.73,0.29,3.02,0.87,3.89
			c0.68,1.01,1.87,1.52,3.57,1.52c1.93,0,3.2-0.68,3.83-2.03c0.34-0.74,0.51-1.83,0.51-3.26c0-1.75-0.25-3.03-0.76-3.84
			C391.32,285.69,390.14,285.14,388.45,285.13L388.45,285.13z M402.56,283.54h5.34c1.47,0,2.55,0.1,3.24,0.32
			c1.28,0.4,2.27,1.3,2.98,2.71c0.5,0.99,0.75,2.26,0.75,3.82c0,3.11-0.84,5.2-2.53,6.27c-0.52,0.32-1.06,0.54-1.63,0.66
			c-0.57,0.11-1.44,0.17-2.61,0.17h-5.54V283.54L402.56,283.54z M404.77,285.32v10.38h3.55c1.57,0,2.68-0.46,3.31-1.38
			c0.58-0.84,0.87-2.05,0.87-3.65c0-1.8-0.33-3.17-1-4.1c-0.32-0.45-0.73-0.77-1.25-0.96c-0.51-0.2-1.21-0.29-2.08-0.29H404.77
			L404.77,285.32z M427.05,283.54v1.78h-4.06c-0.75,0-1.33,0.05-1.74,0.15c-0.41,0.1-0.78,0.29-1.1,0.54
			c-0.45,0.36-0.79,0.82-1.01,1.37c-0.22,0.55-0.36,1.28-0.41,2.19h8.33v1.78h-8.33c-0.02,1,0.2,1.9,0.67,2.72
			c0.34,0.6,0.78,1.02,1.31,1.26c0.52,0.24,1.25,0.37,2.18,0.37h4.17v1.78h-4.58c-1.17,0-2.12-0.13-2.85-0.4
			c-1.3-0.48-2.26-1.51-2.86-3.12c-0.33-0.86-0.49-1.92-0.49-3.18c0-1.68,0.26-3.04,0.79-4.08c0.59-1.15,1.34-1.96,2.26-2.44
			c0.91-0.48,2.18-0.71,3.8-0.71H427.05L427.05,283.54z M433.35,297.47v-1.78h2.7c0.93,0,1.63-0.05,2.1-0.15
			c0.47-0.1,0.84-0.27,1.1-0.53c0.24-0.24,0.41-0.6,0.5-1.08c0.09-0.48,0.14-1.24,0.14-2.27v-8.14h2.21v8.14
			c0,1.4-0.08,2.4-0.24,3.01c-0.23,0.78-0.71,1.43-1.44,1.94c-0.49,0.33-1.04,0.56-1.64,0.67c-0.6,0.11-1.5,0.17-2.72,0.17H433.35
			L433.35,297.47z M442.84,297.47l5.77-13.93h2.93l5.54,13.93h-2.36l-1.42-3.64h-6.6l-1.48,3.64H442.84L442.84,297.47z
			 M450.03,285.21l-2.67,6.85h5.21L450.03,285.21L450.03,285.21z M460.83,286.37v11.11h-2.17v-13.93h2.66l7.08,11.15v-11.15h2.17
			v13.93h-2.59L460.83,286.37L460.83,286.37z M483.53,283.54v1.78h-4.06c-0.75,0-1.33,0.05-1.74,0.15c-0.41,0.1-0.78,0.29-1.1,0.54
			c-0.45,0.36-0.79,0.82-1.01,1.37s-0.36,1.28-0.41,2.19h8.33v1.78h-8.33c-0.02,1,0.2,1.9,0.67,2.72c0.35,0.6,0.78,1.02,1.31,1.26
			c0.52,0.24,1.25,0.37,2.18,0.37h4.17v1.78h-4.58c-1.17,0-2.12-0.13-2.85-0.4c-1.3-0.48-2.26-1.51-2.86-3.12
			c-0.33-0.86-0.49-1.92-0.49-3.18c0-1.68,0.26-3.04,0.79-4.08c0.59-1.15,1.34-1.96,2.26-2.44c0.91-0.48,2.18-0.71,3.8-0.71H483.53
			L483.53,283.54z M486.01,297.47v-13.93h2.21v13.93H486.01L486.01,297.47z M493.45,291.56v5.91h-2.21v-13.93h6.34
			c1.83,0,3.11,0.25,3.84,0.75c0.48,0.33,0.86,0.77,1.14,1.32c0.27,0.55,0.41,1.14,0.41,1.79c0,1.2-0.39,2.14-1.17,2.81
			c-0.43,0.36-1.01,0.64-1.73,0.85c0.94,0.42,1.58,0.91,1.92,1.48c0.34,0.57,0.55,1.51,0.64,2.82c0.05,0.85,0.1,1.36,0.13,1.53
			c0.03,0.17,0.11,0.37,0.24,0.59h-2.27c-0.08-0.15-0.13-0.3-0.15-0.45c-0.02-0.15-0.07-0.67-0.15-1.57
			c-0.14-1.48-0.54-2.5-1.22-3.06c-0.68-0.56-1.85-0.84-3.51-0.84H493.45L493.45,291.56z M493.45,289.79h3.98
			c1.18,0,1.96-0.14,2.35-0.42c0.55-0.41,0.82-1.01,0.82-1.82c0-0.93-0.3-1.57-0.89-1.93c-0.33-0.21-1.09-0.31-2.27-0.31h-3.98
			V289.79L493.45,289.79z M511.23,283.35c2.63,0,4.46,0.79,5.52,2.38c0.76,1.16,1.14,2.77,1.14,4.82c0,2.52-0.64,4.36-1.91,5.5
			c-1.22,1.09-2.87,1.63-4.95,1.63c-2.38,0-4.11-0.68-5.2-2.03c-0.44-0.54-0.78-1.27-1.04-2.2c-0.26-0.93-0.39-1.9-0.39-2.91
			c0-1.03,0.14-2,0.41-2.91c0.28-0.92,0.65-1.65,1.12-2.2c0.59-0.7,1.32-1.21,2.18-1.55C508.98,283.54,510.02,283.37,511.23,283.35
			L511.23,283.35z M511.22,285.13c-1.93,0-3.22,0.67-3.87,2.01c-0.39,0.81-0.59,1.93-0.59,3.37c0,1.73,0.29,3.02,0.87,3.89
			c0.68,1.01,1.87,1.52,3.57,1.52c1.93,0,3.2-0.68,3.83-2.03c0.34-0.74,0.51-1.83,0.51-3.26c0-1.75-0.25-3.03-0.76-3.84
			C514.09,285.69,512.9,285.14,511.22,285.13z"/>
	</g>
</g>
</svg>
